<svg xmlns="http://www.w3.org/2000/svg" xmlns:xlink="http://www.w3.org/1999/xlink" viewBox="0 0 1000 1000"><defs><style>.m{opacity:.1}.n{fill:#f4f7ff}.o{fill:#ff8f80}.p{fill:#9f73e5}.q{fill:#74e8b6}.r{filter:url(#b)}.r,.s,.t,.u{fill:#fff}.s{filter:url(#f)}.t{filter:url(#d)}.u{filter:url(#i)}.v{fill:#c7e9db}.v,.w,.x{opacity:.5}.w{fill:#d4c6e6}.x{fill:#ffd7d0}</style><filter id="b" data-name="drop-shadow-1" filterUnits="userSpaceOnUse"><feOffset dx="0" dy="0"/><feGaussianBlur result="c" stdDeviation="23.706"/><feFlood flood-color="#000" flood-opacity=".1"/><feComposite in2="c" operator="in"/><feComposite in="SourceGraphic"/></filter><filter id="d" data-name="drop-shadow-2" filterUnits="userSpaceOnUse"><feOffset dx="0" dy="0"/><feGaussianBlur result="e" stdDeviation="23.706"/><feFlood flood-color="#000" flood-opacity=".1"/><feComposite in2="e" operator="in"/><feComposite in="SourceGraphic"/></filter><filter id="f" data-name="drop-shadow-3" filterUnits="userSpaceOnUse"><feOffset dx="0" dy="0"/><feGaussianBlur result="g" stdDeviation="23.706"/><feFlood flood-color="#000" flood-opacity=".1"/><feComposite in2="g" operator="in"/><feComposite in="SourceGraphic"/></filter><filter id="i" data-name="drop-shadow-5" filterUnits="userSpaceOnUse"><feOffset dx="0" dy="0"/><feGaussianBlur result="j" stdDeviation="23.706"/><feFlood flood-color="#000" flood-opacity=".23"/><feComposite in2="j" operator="in"/><feComposite in="SourceGraphic"/></filter></defs><g id="a" data-name="Ebene 3"><g><rect width="556" height="490.588" x="287.624" y="221.021" class="r" rx="23" ry="23"/><path d="m310.624477274097444,221.021305135380317h510c12.69404556336201,0,23,10.30595443663799,23,23v86.267379679140504H287.624477274097444v-86.267379679140504c0-12.69404556336201,10.30595443663799-23,23-23Z" class="x"/></g><g><rect width="556" height="490.588" x="266.624" y="246.021" class="t" rx="23" ry="23"/><path d="m289.624477274097444,246.021305135380317h510c12.69404556336201,0,23,10.30595443663799,23,23v86.267379679140504H266.624477274097444v-86.267379679140504c0-12.69404556336201,10.30595443663799-23,23-23Z" class="v"/></g><g><rect width="556" height="490.588" x="241.124" y="266.521" class="s" rx="23" ry="23"/><path d="m264.124477274097444,266.521305135380317h510c12.69404556336201,0,23,10.30595443663799,23,23v86.267379679140504H241.124477274097444v-86.267379679140504c0-12.69404556336201,10.30595443663799-23,23-23Z" class="w"/></g></g><g id="h" data-name="Ebene 1"><rect width="556" height="490.588" x="222" y="292.706" class="u" rx="23" ry="23"/><path d="m245.000000000000909,292.705882352940534h509.999999999999091c12.69404556336201,0,23,10.30595443663799,23,23v86.267379679149599H222.000000000000909v-86.267379679149599c0-12.69404556336201,10.30595443663799-23,23-23Z" class="n"/></g><g id="k" data-name="Ebene 2"><rect width="103.7" height="90.684" x="249.123" y="435.422" class="n"/><rect width="103.7" height="90.684" x="513.743" y="435.422" class="n"/><rect width="103.7" height="90.684" x="249.123" y="547.663" class="p"/><rect width="58" height="90.684" x="191" y="547.663" class="p"/><rect width="131.946" height="90.684" x="646.054" y="547.663" class="q"/><rect width="103.7" height="90.684" x="646.054" y="659.904" class="n"/><rect width="103.7" height="90.684" x="381.433" y="547.663" class="n"/><rect width="103.7" height="90.684" x="381.433" y="659.904" class="n"/><rect width="103.7" height="138.096" x="513.743" y="659.904" class="o"/><polygon points="191 638.348 222 657 222 638.348 191 638.348" class="p"/><polygon points="191 638.348 222 657 222 638.348 191 638.348" class="m"/><rect width="58" height="90.684" x="750" y="547.663" class="q"/><polygon points="808 638.348 777 657 777 638.348 808 638.348" class="q"/><polygon points="808 638.348 777 657 777 638.348 808 638.348" class="m"/><polygon points="617.444 798 634.561 783.294 617.444 783.294 617.444 798" class="o"/><polyline points="617.444 783.294 617.444 798 634.561 783.294" class="m"/></g></svg>